<?xml version="1.0" standalone="no"?>
<!DOCTYPE svg PUBLIC "-//W3C//DTD SVG 20010904//EN"
 "http://www.w3.org/TR/2001/REC-SVG-20010904/DTD/svg10.dtd">
<svg version="1.0" xmlns="http://www.w3.org/2000/svg"
 width="200.000000pt" height="200.000000pt" viewBox="0 0 200.000000 200.000000"
 preserveAspectRatio="xMidYMid meet">

<g transform="translate(0.000000,200.000000) scale(0.100000,-0.100000)"
fill="#000000" stroke="none">
<path d="M897 1975 c-178 -26 -276 -61 -413 -147 -244 -152 -423 -427 -454
-698 -6 -47 -15 -97 -21 -112 -8 -19 -8 -36 0 -61 6 -19 16 -71 21 -117 17
-146 85 -317 177 -441 86 -117 321 -304 354 -283 7 4 9 3 6 -4 -4 -6 24 -22
73 -41 304 -116 647 -79 911 100 132 88 273 248 341 384 34 68 74 186 89 265
18 95 16 289 -5 385 -42 191 -148 379 -288 510 -157 146 -310 219 -534 255
-139 22 -136 22 -257 5z m243 -29 c256 -39 477 -172 633 -381 68 -90 139 -232
162 -321 33 -132 45 -310 26 -397 -5 -23 -14 -66 -20 -95 -22 -107 -109 -277
-192 -378 -105 -125 -276 -241 -439 -297 -222 -76 -503 -57 -714 49 -494 248
-692 827 -448 1309 156 311 487 516 842 524 30 0 98 -6 150 -13z"/>
<path d="M350 1318 c0 -100 3 -138 13 -141 7 -3 5 -6 -5 -6 -10 -1 -18 -4 -18
-8 0 -6 138 -8 206 -4 6 1 16 13 23 27 6 15 15 24 18 20 4 -3 1 -12 -5 -18
-33 -33 -14 -37 151 -40 186 -3 174 6 141 -108 -17 -58 -19 -103 -19 -440 l0
-375 145 0 145 0 5 370 c5 369 5 370 29 410 70 116 144 145 373 145 l118 0 0
155 0 155 -367 -2 c-233 -1 -373 -5 -381 -12 -9 -6 -16 -6 -20 0 -5 7 -107 10
-279 10 l-273 -1 0 -137z m537 116 c-3 -3 -12 -4 -19 -1 -8 3 -5 6 6 6 11 1
17 -2 13 -5z m-237 -144 c-6 -11 -13 -20 -16 -20 -2 0 0 9 6 20 6 11 13 20 16
20 2 0 0 -9 -6 -20z"/>
</g>
</svg>
